<?xml version="1.0" encoding="UTF-8"?>
<svg xmlns="http://www.w3.org/2000/svg" xmlns:xlink="http://www.w3.org/1999/xlink" width="200px" height="71px" viewBox="0 0 199 71" version="1.1">
<g id="surface1">
<path style=" stroke:none;fill-rule:evenodd;fill:rgb(100%,100%,100%);fill-opacity:1;" d="M 0.0664062 0 L 198.933594 0 L 198.933594 71 L 0.0664062 71 Z M 0.0664062 0 "/>
<path style=" stroke:none;fill-rule:evenodd;fill:rgb(100%,0%,0%);fill-opacity:1;" d="M 8.898438 4.445312 L 190.101562 4.445312 C 192.648438 4.445312 194.734375 6.570312 194.734375 9.167969 L 194.734375 23.746094 L 172.054688 23.746094 C 170.863281 10.546875 111.144531 7.730469 100.824219 7.652344 C 84.1875 7.523438 26.890625 11.453125 26.890625 23.492188 L 26.890625 23.746094 L 4.265625 23.746094 L 4.265625 9.167969 C 4.265625 6.570312 6.351562 4.445312 8.898438 4.445312 Z M 8.898438 4.445312 "/>
<path style=" stroke:none;fill-rule:evenodd;fill:rgb(0%,0%,100%);fill-opacity:1;" d="M 26.875 45.328125 L 4.265625 45.328125 L 4.265625 25.730469 L 26.886719 25.730469 C 26.867188 31.871094 26.785156 39.398438 26.875 45.328125 Z M 194.734375 25.730469 L 194.734375 45.328125 L 172.105469 45.328125 C 172.285156 39.203125 171.886719 31.910156 172.027344 25.730469 Z M 194.734375 25.730469 "/>
<path style=" stroke:none;fill-rule:evenodd;fill:rgb(97.647059%,80.392157%,3.529412%);fill-opacity:1;" d="M 194.734375 47.3125 L 194.734375 61.835938 C 194.734375 64.429688 192.648438 66.554688 190.101562 66.554688 L 8.898438 66.554688 C 6.351562 66.554688 4.265625 64.429688 4.265625 61.835938 L 4.265625 47.3125 L 27.027344 47.3125 C 29.820312 59.175781 76.753906 63.835938 100.238281 63.96875 C 113.464844 64.039062 168.527344 59.820312 171.90625 47.3125 Z M 194.734375 47.3125 "/>
<path style=" stroke:none;fill-rule:evenodd;fill:rgb(90.196078%,14.509804%,17.647059%);fill-opacity:1;" d="M 100.546875 11.117188 C 113.445312 11.234375 168.683594 16.867188 168.179688 23.859375 C 167.75 29.730469 168.617188 41.117188 168.179688 46.988281 C 167.664062 53.789062 113.050781 59.742188 100.195312 59.632812 C 86.339844 59.515625 31.011719 54.914062 30.785156 46.359375 C 30.628906 40.476562 30.785156 30.394531 30.785156 24.507812 C 30.785156 15.773438 86.476562 10.984375 100.546875 11.117188 Z M 100.488281 16.472656 C 87.203125 16.371094 34.617188 19.589844 34.617188 26.390625 C 34.617188 30.980469 34.476562 40.035156 34.617188 44.617188 C 34.832031 51.457031 87.074219 54.183594 100.15625 54.277344 C 112.296875 54.359375 163.867188 50.410156 164.347656 45.109375 C 164.765625 40.535156 163.945312 30.636719 164.347656 26.058594 C 164.828125 20.613281 112.667969 16.566406 100.488281 16.472656 Z M 100.488281 16.472656 "/>
<path style=" stroke:none;fill-rule:evenodd;fill:rgb(0%,0%,100%);fill-opacity:1;" d="M 78.527344 36.132812 C 79.207031 36.441406 79.078125 38.085938 78.242188 39.804688 C 77.402344 41.519531 76.167969 42.667969 75.488281 42.359375 C 74.8125 42.054688 74.941406 40.40625 75.777344 38.6875 C 76.613281 36.972656 77.851562 35.824219 78.527344 36.132812 Z M 124.496094 36.28125 C 125.171875 36.589844 125.046875 38.238281 124.207031 39.953125 C 123.371094 41.667969 122.132812 42.8125 121.453125 42.507812 C 120.773438 42.203125 120.902344 40.550781 121.742188 38.835938 C 122.582031 37.121094 123.816406 35.972656 124.496094 36.28125 Z M 147.058594 35.796875 C 147.429688 36.078125 147.09375 37.160156 146.3125 38.195312 C 145.53125 39.234375 144.589844 39.851562 144.21875 39.570312 C 143.847656 39.289062 144.183594 38.210938 144.964844 37.171875 C 145.746094 36.136719 146.6875 35.519531 147.058594 35.796875 Z M 147.535156 33.574219 C 144.953125 33.378906 143.226562 35.175781 142.324219 36.949219 C 141.605469 38.355469 141.390625 40.378906 141.90625 42.066406 C 141.160156 42.667969 140.230469 43.191406 138.753906 43.484375 C 138.023438 43.632812 137.621094 43.078125 137.625 42.566406 C 137.644531 41.097656 137.804688 39.863281 138.226562 38.484375 C 138.394531 37.914062 138.980469 38.109375 139.183594 37.628906 C 139.589844 36.628906 139.640625 35.664062 138.328125 35.820312 C 137.480469 35.921875 136.570312 36.050781 136.535156 34.902344 C 136.503906 33.785156 137.863281 33.1875 137.664062 33.089844 C 136.910156 32.726562 136.277344 33.085938 135.492188 32.808594 C 135.269531 32.726562 135.453125 32.222656 135.226562 32.152344 C 134.929688 32.050781 134.402344 32.371094 134.226562 32.636719 C 133.847656 33.21875 133.878906 33.753906 133.597656 34.445312 C 133.359375 35.023438 133.335938 35.667969 133.203125 36.28125 C 132.792969 37.484375 130.195312 41.214844 128.289062 42.1875 C 127.214844 42.734375 126.539062 42.253906 126.871094 41.128906 C 127.316406 39.628906 128.789062 35.972656 129.746094 33.394531 C 128.808594 33.417969 127.976562 33.492188 127.039062 33.511719 C 126.933594 33.839844 126.769531 34.0625 126.664062 34.390625 C 124.566406 33.042969 123.289062 33.5625 121.382812 34.933594 C 119.96875 35.957031 118.722656 37.503906 118.054688 39.359375 C 117.789062 40.09375 117.644531 40.839844 117.625 41.535156 C 116.46875 41.960938 115.316406 42.582031 114.28125 42.425781 C 114.03125 42.386719 113.855469 42 113.914062 41.753906 C 114.261719 40.253906 114.992188 38.871094 115.445312 37.398438 C 115.726562 36.472656 116.289062 35.527344 116.117188 34.578125 C 115.878906 33.296875 114.25 33.257812 113.363281 33.71875 C 112.613281 34.109375 112.039062 34.796875 111.289062 35.191406 C 111.136719 35.269531 110.921875 35.179688 110.796875 35.070312 C 110.472656 34.777344 110.320312 34.324219 110.003906 34.023438 C 109.722656 33.761719 109.402344 33.488281 109.023438 33.414062 C 108.566406 33.316406 108.054688 33.355469 107.621094 33.535156 C 106.699219 33.917969 106.042969 34.96875 105.054688 35.070312 C 104.625 35.113281 104.898438 34.175781 104.625 33.839844 C 103.964844 33.039062 103.328125 33.316406 102.546875 33.65625 C 100.945312 34.355469 99.363281 35.097656 97.769531 35.820312 C 97.925781 36.144531 98.058594 36.480469 98.167969 36.828125 C 98.800781 36.609375 99.457031 36.328125 100.101562 36.171875 C 100.398438 36.097656 100.761719 35.945312 101.019531 36.109375 C 101.253906 36.257812 101.347656 36.640625 101.261719 36.90625 C 100.394531 39.71875 99.226562 42.425781 98.207031 45.1875 C 99.265625 45.167969 100.324219 45.148438 101.386719 45.125 C 102.34375 42.652344 103.011719 40.042969 104.257812 37.707031 C 104.480469 37.28125 105.136719 37.121094 105.601562 37.214844 C 105.921875 37.28125 106.035156 37.75 106.089844 38.070312 C 106.164062 38.476562 106.101562 38.910156 105.96875 39.300781 C 105.304688 41.273438 104.460938 43.183594 103.707031 45.125 C 104.871094 45.105469 106.089844 45.207031 107.25 45.1875 C 108.375 42.609375 108.8125 39.96875 110.1875 37.523438 C 110.355469 37.214844 111.257812 37.117188 111.589844 37.214844 C 111.816406 37.28125 112.070312 37.535156 112.019531 37.765625 C 111.722656 39.144531 110.964844 40.386719 110.617188 41.753906 C 110.449219 42.386719 110.316406 43.085938 110.492188 43.714844 C 110.640625 44.246094 111.039062 44.757812 111.53125 45 C 111.949219 45.214844 112.503906 45.121094 112.9375 44.941406 C 114.582031 44.257812 116.109375 43.316406 117.679688 42.476562 C 117.957031 44.25 119.226562 45.46875 121.644531 44.929688 C 122.492188 44.738281 122.953125 44.1875 123.734375 43.8125 C 124.132812 45.085938 125.007812 45.605469 126.414062 45.027344 C 129.882812 43.59375 131.917969 41.109375 134.484375 37.378906 C 134.902344 37.472656 135.71875 37.238281 136.128906 37.246094 C 135.6875 38.585938 132.949219 43.375 135.8125 44.820312 C 136.609375 45.21875 137.222656 45.085938 138.105469 44.929688 C 140.082031 44.566406 141.300781 43.722656 142.25 42.933594 C 142.730469 43.886719 143.503906 44.644531 144.625 44.988281 C 146.902344 45.6875 149.503906 44.476562 151.128906 43.761719 C 151.996094 45.257812 154.230469 45.535156 155.535156 45.0625 C 156.914062 44.554688 158.160156 43.675781 159.261719 42.703125 C 159.488281 42.496094 159.464844 41.984375 159.234375 41.78125 C 159.023438 41.59375 158.664062 41.929688 158.433594 42.101562 C 157.480469 42.8125 155.574219 44.613281 154.503906 43.101562 C 154.023438 42.421875 154.34375 41.28125 154.816406 39.988281 C 155.28125 38.726562 155.726562 37.089844 156.183594 35.824219 C 156.832031 35.773438 157.5625 35.839844 158.210938 35.785156 C 158.492188 34.996094 158.613281 34.363281 158.890625 33.574219 C 158.453125 33.539062 157.855469 33.585938 157.417969 33.546875 C 157.820312 31.433594 158.691406 29.269531 159.429688 27.152344 C 158.433594 27.171875 157.601562 27.230469 156.601562 27.25 C 155.90625 29.308594 155.355469 31.332031 154.402344 33.390625 C 153.75 33.414062 153.058594 33.472656 152.40625 33.488281 C 152.238281 34.261719 152.0625 35.03125 151.890625 35.800781 C 152.390625 35.785156 153.089844 35.761719 153.585938 35.746094 C 152.953125 38.164062 152.265625 40.34375 150.855469 42.21875 C 150.355469 42.882812 149.484375 43.261719 148.671875 43.433594 C 146.175781 43.945312 145.214844 43.132812 144.820312 42 C 145.871094 41.109375 146.917969 40.695312 147.867188 39.695312 C 149.398438 38.09375 151.273438 33.863281 147.535156 33.574219 Z M 60.839844 24.164062 C 56.878906 24.621094 51.015625 25.054688 47.660156 27.269531 C 45.691406 28.574219 43.921875 31.074219 45.691406 33.621094 C 47.421875 36.105469 50.511719 35.054688 51.761719 33.402344 C 50.332031 33.210938 49.191406 32.941406 49.101562 31.914062 C 48.691406 27.238281 52.949219 28.207031 57.035156 26.871094 C 54.914062 31.90625 53.003906 40.878906 47.601562 41.984375 C 43.671875 42.789062 41.871094 41.050781 40.953125 38.59375 C 38.777344 42.800781 41.890625 44.71875 44.683594 45.148438 C 47.265625 45.550781 50.574219 43.933594 52.402344 42.015625 C 53.691406 41.171875 54.984375 40.210938 56.160156 39.117188 C 56.464844 38.828125 60.773438 35.519531 60.375 38.257812 C 60.023438 40.667969 59.070312 42.425781 58.355469 44.757812 C 59.417969 44.777344 60.476562 44.796875 61.535156 44.820312 C 62.308594 42.507812 62.878906 40.121094 63.855469 37.890625 C 64.027344 37.5 64.480469 37.210938 64.898438 37.152344 C 65.285156 37.097656 65.855469 37.214844 66 37.582031 C 66.25 38.230469 65.890625 39.054688 65.707031 39.722656 C 65.410156 40.820312 63.761719 44.390625 65.90625 44.660156 C 68.007812 44.929688 70.371094 43.421875 71.617188 42.402344 C 71.792969 43.464844 72.351562 44.390625 73.464844 44.921875 C 74.230469 45.289062 75.183594 45.050781 76.011719 44.863281 C 76.683594 44.710938 77.234375 44.230469 77.84375 43.910156 C 77.738281 45.449219 79.199219 45.269531 80.183594 44.804688 C 82.398438 43.746094 83.636719 43.003906 85.152344 42.496094 C 84.996094 42.226562 84.859375 41.9375 84.738281 41.644531 C 83.648438 41.925781 82.574219 42.453125 81.457031 42.367188 C 81.082031 42.339844 80.984375 41.65625 81.101562 41.296875 C 82.664062 36.589844 84.652344 32.027344 86.429688 27.398438 C 85.503906 27.457031 84.792969 27.457031 83.863281 27.515625 C 83.132812 29.496094 82.1875 31.535156 81.457031 33.515625 C 77.972656 32.875 74.726562 33.851562 72.460938 38.207031 C 71.972656 39.140625 71.632812 40.226562 71.566406 41.273438 C 70.777344 41.792969 70.042969 42.328125 69.113281 42.558594 C 68.769531 42.648438 68.503906 42.105469 68.566406 41.753906 C 68.765625 40.582031 69.171875 39.460938 69.5625 38.335938 C 69.832031 37.566406 70.828125 35.335938 70.460938 34.578125 C 69.824219 33.265625 68.890625 33.273438 67.945312 33.664062 C 66.734375 34.164062 65.496094 35.296875 64.835938 35.070312 C 63.867188 34.730469 64.144531 33.230469 62.683594 33.402344 C 62.226562 33.453125 61.757812 33.640625 61.351562 33.839844 C 59.277344 34.867188 57.300781 36.34375 55.316406 37.609375 C 57.222656 33.929688 59.03125 29.027344 60.839844 24.164062 Z M 60.839844 24.164062 "/>
<path style=" stroke:none;fill-rule:nonzero;fill:rgb(100%,0%,0%);fill-opacity:1;" d="M 91.347656 31.785156 L 91.351562 31.785156 C 93.316406 31.785156 95.101562 32.589844 96.394531 33.886719 L 96.394531 33.890625 C 97.683594 35.183594 98.488281 36.972656 98.488281 38.945312 C 98.488281 40.921875 97.683594 42.714844 96.390625 44.007812 C 95.097656 45.304688 93.316406 46.109375 91.351562 46.109375 L 91.347656 46.109375 C 89.382812 46.109375 87.597656 45.304688 86.304688 44.007812 C 85.011719 42.710938 84.210938 40.921875 84.210938 38.949219 L 84.210938 38.945312 C 84.210938 36.972656 85.011719 35.179688 86.304688 33.886719 C 87.597656 32.589844 89.378906 31.785156 91.34375 31.785156 Z M 91.351562 32.65625 L 91.34375 32.65625 C 89.621094 32.65625 88.054688 33.363281 86.917969 34.503906 C 85.785156 35.640625 85.078125 37.214844 85.078125 38.945312 L 85.078125 38.949219 C 85.082031 40.679688 85.785156 42.253906 86.917969 43.390625 C 88.054688 44.527344 89.621094 45.238281 91.347656 45.238281 L 91.351562 45.238281 C 93.078125 45.234375 94.640625 44.53125 95.777344 43.390625 C 96.914062 42.253906 97.617188 40.679688 97.617188 38.945312 C 97.617188 37.214844 96.914062 35.640625 95.777344 34.503906 C 94.640625 33.363281 93.074219 32.65625 91.351562 32.65625 Z M 91.351562 32.65625 "/>
<path style=" stroke:none;fill-rule:evenodd;fill:rgb(100%,0%,0%);fill-opacity:1;" d="M 91.347656 33.527344 C 94.328125 33.527344 96.75 35.957031 96.75 38.945312 C 96.75 41.9375 94.328125 44.367188 91.347656 44.367188 C 88.367188 44.367188 85.949219 41.9375 85.949219 38.945312 C 85.949219 35.957031 88.367188 33.527344 91.347656 33.527344 Z M 91.347656 34.644531 C 93.714844 34.644531 95.636719 36.570312 95.636719 38.945312 C 95.636719 41.324219 93.714844 43.25 91.347656 43.25 C 88.980469 43.25 87.0625 41.324219 87.0625 38.945312 C 87.0625 36.570312 88.980469 34.644531 91.347656 34.644531 Z M 91.347656 34.644531 "/>
<path style=" stroke:none;fill-rule:evenodd;fill:rgb(100%,0%,0%);fill-opacity:1;" d="M 91.347656 35.699219 C 93.136719 35.699219 94.585938 37.152344 94.585938 38.945312 C 94.585938 40.742188 93.136719 42.195312 91.347656 42.195312 C 89.558594 42.195312 88.109375 40.742188 88.109375 38.945312 C 88.109375 37.152344 89.558594 35.699219 91.347656 35.699219 Z M 91.347656 35.699219 "/>
</g>
</svg>
